<!--?xml version="1.0" standalone="no"?-->
              <svg id="sw-js-blob-svg" viewBox="0 0 100 100" xmlns="http://www.w3.org/2000/svg" version="1.1">
                    <defs> 
                        <linearGradient id="sw-gradient" x1="0" x2="1" y1="1" y2="0">
                            <stop id="stop1" stop-color="rgba(248, 117, 55, 1)" offset="0%"></stop>
                            <stop id="stop2" stop-color="rgba(251, 168, 31, 1)" offset="100%"></stop>
                        </linearGradient>
                    </defs>
                <path fill="url(#sw-gradient)" d="M19.8,-35.8C24.5,-31.5,26.4,-23.9,27.5,-17.4C28.7,-10.9,29.1,-5.4,31.4,1.3C33.6,8,37.7,16,35.8,21.4C34,26.8,26.3,29.6,19.4,32.6C12.4,35.7,6.2,39.1,-0.4,39.8C-7.1,40.5,-14.1,38.6,-19.8,34.8C-25.5,31,-29.9,25.4,-32.1,19.3C-34.4,13.2,-34.6,6.6,-35.6,-0.6C-36.7,-7.8,-38.7,-15.7,-36,-21C-33.3,-26.3,-25.9,-29.2,-19.1,-32.3C-12.3,-35.4,-6.2,-38.8,0.7,-40C7.5,-41.1,15.1,-40.1,19.8,-35.8Z" width="100%" height="100%" transform="translate(50 50)" stroke-width="0" style="transition: all 0.3s ease 0s;"></path>
              </svg>