<svg width="193" height="91" viewBox="0 0 193 91" fill="none" xmlns="http://www.w3.org/2000/svg">
<g filter="url(#filter0_d_1_28)">
<path d="M75.907 64.4532C77.0184 65.2945 77.2431 66.8834 76.335 67.9409C71.3831 73.7075 64.913 77.9975 57.637 80.3076C49.5572 82.8729 40.8808 82.8706 32.8024 80.3011C24.7239 77.7316 17.6406 72.7211 12.5275 65.9595C7.41433 59.1978 4.52282 51.0175 4.251 42.5446C3.97917 34.0717 6.34039 25.7229 11.0096 18.6474C15.6788 11.5719 22.4264 6.11773 30.3236 3.03567C38.2207 -0.0464014 46.879 -0.604802 55.1067 1.43733C62.5158 3.27633 69.2476 7.1428 74.5589 12.5801C75.5329 13.5773 75.4106 15.1772 74.3554 16.0881C73.3002 16.999 71.7124 16.8748 70.7297 15.8861C66.1068 11.2346 60.2866 7.92415 53.8906 6.33664C46.676 4.54594 39.0837 5.03559 32.1589 7.73819C25.234 10.4408 19.3172 15.2234 15.2228 21.4278C11.1285 27.6321 9.05801 34.953 9.29637 42.3827C9.53472 49.8124 12.0702 56.9856 16.5538 62.9147C21.0374 68.8439 27.2487 73.2374 34.3325 75.4906C41.4163 77.7438 49.0244 77.7458 56.1094 75.4963C62.3904 73.5021 67.9865 69.8254 72.3018 64.8871C73.219 63.8375 74.7956 63.6118 75.907 64.4532Z" fill="url(#paint0_linear_1_28)"/>
</g>
<path d="M49.945 59.45C46.675 59.45 43.75 58.7 41.17 57.2C38.59 55.7 36.565 53.645 35.095 51.035C33.655 48.395 32.935 45.44 32.935 42.17C32.935 38.99 33.67 36.125 35.14 33.575C36.61 31.025 38.65 29.03 41.26 27.59C43.87 26.15 46.81 25.43 50.08 25.43C51.85 25.43 53.44 25.595 54.85 25.925C56.29 26.225 57.46 26.585 58.36 27.005C59.26 27.395 59.875 27.74 60.205 28.04L58.225 32.27C56.365 30.77 53.62 30.02 49.99 30.02C47.59 30.02 45.505 30.545 43.735 31.595C41.965 32.645 40.615 34.07 39.685 35.87C38.755 37.67 38.29 39.68 38.29 41.9C38.29 44.42 38.785 46.67 39.775 48.65C40.795 50.63 42.19 52.175 43.96 53.285C45.76 54.365 47.785 54.905 50.035 54.905C51.445 54.905 52.795 54.74 54.085 54.41C55.375 54.05 56.47 53.495 57.37 52.745V46.355H50.575V41.72H62.365V54.68C61.285 56.03 59.65 57.17 57.46 58.1C55.3 59 52.795 59.45 49.945 59.45ZM86.8063 59.45C83.8063 59.45 81.0313 58.76 78.4813 57.38C75.9613 55.97 73.9513 53.975 72.4513 51.395C70.9513 48.815 70.2013 45.815 70.2013 42.395C70.2013 38.945 70.9513 35.945 72.4513 33.395C73.9513 30.815 75.9613 28.835 78.4813 27.455C81.0313 26.075 83.8063 25.385 86.8063 25.385C89.8063 25.385 92.5663 26.075 95.0863 27.455C97.6363 28.835 99.6613 30.815 101.161 33.395C102.661 35.945 103.411 38.945 103.411 42.395C103.411 45.815 102.661 48.815 101.161 51.395C99.6613 53.975 97.6363 55.97 95.0863 57.38C92.5663 58.76 89.8063 59.45 86.8063 59.45ZM86.8063 54.905C88.8763 54.905 90.7663 54.425 92.4763 53.465C94.1863 52.475 95.5363 51.05 96.5263 49.19C97.5463 47.3 98.0563 45.05 98.0563 42.44C98.0563 39.8 97.5463 37.55 96.5263 35.69C95.5363 33.8 94.1863 32.375 92.4763 31.415C90.7963 30.455 88.9063 29.975 86.8063 29.975C84.7063 29.975 82.8013 30.455 81.0913 31.415C79.3813 32.375 78.0313 33.8 77.0413 35.69C76.0513 37.55 75.5563 39.8 75.5563 42.44C75.5563 45.05 76.0663 47.3 77.0863 49.19C78.1063 51.05 79.4713 52.475 81.1813 53.465C82.9213 54.425 84.7963 54.905 86.8063 54.905ZM120.288 44.195L117.588 47.525V59H112.638V25.925H117.588V40.685L128.928 25.925H134.958L123.573 40.46L136.578 59H130.413L120.288 44.195ZM154.385 59.45C150.245 59.45 147.245 58.205 145.385 55.715C143.525 53.225 142.595 49.61 142.595 44.87V25.925H147.635V44.96C147.635 48.47 148.16 50.99 149.21 52.52C150.26 54.02 151.985 54.77 154.385 54.77C156.785 54.77 158.495 54.035 159.515 52.565C160.565 51.065 161.09 48.53 161.09 44.96V25.925H166.175V44.87C166.175 49.58 165.185 53.195 163.205 55.715C161.255 58.205 158.315 59.45 154.385 59.45ZM176.395 25.925H181.48V54.5H190.975V59H176.395V25.925Z" fill="black"/>
<defs>
<filter id="filter0_d_1_28" x="0.229919" y="0.229919" width="80.668" height="90" filterUnits="userSpaceOnUse" color-interpolation-filters="sRGB">
<feFlood flood-opacity="0" result="BackgroundImageFix"/>
<feColorMatrix in="SourceAlpha" type="matrix" values="0 0 0 0 0 0 0 0 0 0 0 0 0 0 0 0 0 0 127 0" result="hardAlpha"/>
<feOffset dy="4"/>
<feGaussianBlur stdDeviation="2"/>
<feComposite in2="hardAlpha" operator="out"/>
<feColorMatrix type="matrix" values="0 0 0 0 0.9875 0 0 0 0 0.851554 0 0 0 0 0.501979 0 0 0 0.58 0"/>
<feBlend mode="normal" in2="BackgroundImageFix" result="effect1_dropShadow_1_28"/>
<feBlend mode="normal" in="SourceGraphic" in2="effect1_dropShadow_1_28" result="shape"/>
</filter>
<linearGradient id="paint0_linear_1_28" x1="-17.1935" y1="-3.11702" x2="50.8463" y2="81.8434" gradientUnits="userSpaceOnUse">
<stop stop-color="#FCCF5A"/>
<stop offset="0.833333" stop-color="#FF3969"/>
</linearGradient>
</defs>
</svg>
